# xmcd
#
# Track frame offsets: 
#        150
#        19725
#        36935
#        57372
#
# Disc length: 1022 seconds
#
# Revision: 3
# Processed by: cddbd v1.5.2PL0 Copyright (c) Steve Scherf et al.
# Submitted via: ExactAudioCopy v1.0b3
#
DISCID=2d03fc04
DTITLE=竹井詩織里 - 世界止めて
DYEAR=2005
DGENRE=JPop
TTITLE0=世界 止めて
TTITLE1=追憶
TTITLE2=夕暮れの雨と
TTITLE3=世界 止めて（less vocal)
EXTD=YEAR: 2005
EXTT0=
EXTT1=
EXTT2=
EXTT3=
PLAYORDER=
